<svg width="114" height="108" viewBox="0 0 114 108" fill="none" xmlns="http://www.w3.org/2000/svg">
<rect width="114" height="108" rx="23" fill="#022B3A"/>
<path d="M63.4883 79V27.8125H46.7539C41.1992 27.8125 37.0273 28.9609 34.2383 31.2578C31.4258 33.5547 30.0195 36.9531 30.0195 41.4531C30.0195 43.8438 30.6992 45.9648 32.0586 47.8164C33.418 49.6445 35.2695 51.0625 37.6133 52.0703C34.8477 52.8438 32.668 54.3203 31.0742 56.5C29.457 58.6562 28.6484 61.2344 28.6484 64.2344C28.6484 68.8281 30.1367 72.4375 33.1133 75.0625C36.0898 77.6875 40.2969 79 45.7344 79H63.4883ZM56.7383 55.0586V73.4805H45.5938C42.4531 73.4805 39.9805 72.6719 38.1758 71.0547C36.3477 69.4141 35.4336 67.1641 35.4336 64.3047C35.4336 58.1406 38.7852 55.0586 45.4883 55.0586H56.7383ZM56.7383 49.6445H46.543C43.5898 49.6445 41.2344 48.9062 39.4766 47.4297C37.6953 45.9531 36.8047 43.9492 36.8047 41.418C36.8047 38.6055 37.625 36.5664 39.2656 35.3008C40.9062 34.0117 43.4023 33.3672 46.7539 33.3672H56.7383V49.6445Z" fill="#E1E5F2"/>
<path d="M85.4141 55.3398H63.2305V73.4805H89V79H56.4805V27.8125H88.6484V33.3672H63.2305V49.8203H85.4141V55.3398Z" fill="#E1E5F2"/>
<line x1="59.6833" y1="29.3416" x2="33.6833" y2="81.3416" stroke="#E1E5F2" stroke-width="6"/>
</svg>