<svg width="50" height="50" viewBox="0 0 50 50" fill="none" xmlns="http://www.w3.org/2000/svg">
<g clip-path="url(#clip0_35_2)">
<path d="M3.07965e-09 14.0659V10.6482C0.0744 9.41129 0.6324 8.36969 1.674 7.52339C2.7156 6.67708 3.9432 6.25393 5.3568 6.25393H10.7136V4.69153C10.7136 3.38953 11.2344 2.28283 12.276 1.37143C13.3176 0.460034 14.5824 0.0043335 16.0704 0.0043335H33.9264C35.4144 0.0043335 36.6792 0.460034 37.7208 1.37143C38.7624 2.28283 39.2832 3.38953 39.2832 4.69153V6.25393H44.64C46.0536 6.25393 47.2812 6.67708 48.3228 7.52339C49.3644 8.36969 49.9224 9.41129 49.9968 10.6482V14.0659C49.9968 14.9122 49.6434 15.6446 48.9366 16.2631C48.2298 16.8816 47.3928 17.1908 46.4256 17.1907V43.7515C46.4256 45.5092 45.7374 46.9903 44.361 48.1946C42.9846 49.399 41.292 50.0012 39.2832 50.0011H10.7136C8.7048 50.0011 7.01219 49.399 5.63577 48.1946C4.25935 46.9903 3.57116 45.5093 3.5712 43.7515V17.1907C2.604 17.1907 1.76699 16.8815 1.06017 16.2631C0.353352 15.6447 -3.80922e-05 14.9123 3.07965e-09 14.0659H3.07965e-09ZM3.5712 14.0659H46.4256V10.9411C46.4256 10.4854 46.2582 10.1111 45.9234 9.81814C45.5886 9.52517 45.1607 9.37868 44.6399 9.37868H5.35674C4.83594 9.37868 4.40813 9.52517 4.07331 9.81814C3.73849 10.1111 3.57109 10.4854 3.57109 10.9411V14.0659H3.5712ZM7.1424 43.7515C7.1424 44.5978 7.49579 45.3302 8.20257 45.9487C8.90935 46.5672 9.74636 46.8764 10.7136 46.8763H39.2832C40.2504 46.8763 41.0874 46.5671 41.7942 45.9487C42.501 45.3303 42.8544 44.5979 42.8544 43.7515V17.1907H7.1424V43.7515ZM10.7136 42.1891V21.8779C10.7136 21.4222 10.881 21.0479 11.2158 20.7549C11.5506 20.462 11.9785 20.3155 12.4993 20.3155H16.0705C16.5913 20.3155 17.0191 20.462 17.3539 20.7549C17.6887 21.0479 17.8561 21.4222 17.8561 21.8779V42.1891C17.8561 42.6448 17.6887 43.0192 17.3539 43.3121C17.0191 43.6051 16.5913 43.7516 16.0705 43.7516H12.4993C11.9785 43.7516 11.5506 43.6051 11.2158 43.3121C10.881 43.0192 10.7136 42.6448 10.7136 42.1891ZM12.4992 42.1891H16.0704V21.8779H12.4992V42.1891ZM14.2848 6.25393H35.712V4.69153C35.712 4.23583 35.5446 3.8615 35.2098 3.56853C34.875 3.27557 34.4471 3.12908 33.9263 3.12908H16.0703C15.5495 3.12908 15.1217 3.27557 14.7869 3.56853C14.4521 3.8615 14.2847 4.23583 14.2847 4.69153V6.25393H14.2848ZM21.4272 42.1891V21.8779C21.4272 21.4222 21.5946 21.0479 21.9294 20.7549C22.2642 20.462 22.6921 20.3155 23.2129 20.3155H26.7841C27.3049 20.3155 27.7327 20.462 28.0675 20.7549C28.4023 21.0479 28.5697 21.4222 28.5697 21.8779V42.1891C28.5697 42.6448 28.4023 43.0192 28.0675 43.3121C27.7327 43.6051 27.3049 43.7516 26.7841 43.7516H23.2129C22.6921 43.7516 22.2642 43.6051 21.9294 43.3121C21.5946 43.0192 21.4272 42.6448 21.4272 42.1891ZM23.2128 42.1891H26.784V21.8779H23.2128V42.1891ZM32.1408 42.1891V21.8779C32.1408 21.4222 32.3082 21.0479 32.643 20.7549C32.9778 20.462 33.4057 20.3155 33.9265 20.3155H37.4977C38.0185 20.3155 38.4463 20.462 38.7811 20.7549C39.1159 21.0479 39.2833 21.4222 39.2833 21.8779V42.1891C39.2833 42.6448 39.1159 43.0192 38.7811 43.3121C38.4463 43.6051 38.0185 43.7516 37.4977 43.7516H33.9265C33.4057 43.7516 32.9778 43.6051 32.643 43.3121C32.3082 43.0192 32.1408 42.6448 32.1408 42.1891ZM33.9264 42.1891H37.4976V21.8779H33.9264V42.1891Z" fill="#022B3A"/>
</g>
<defs>
<clipPath id="clip0_35_2">
<rect width="50" height="50" fill="white"/>
</clipPath>
</defs>
</svg>
